<mxfile host="65bd71144e">
    <diagram id="r-MQpMNi5kDkMZ5AO4cJ" name="Page-1">
        <mxGraphModel dx="1476" dy="390" grid="1" gridSize="10" guides="1" tooltips="1" connect="1" arrows="1" fold="1" page="1" pageScale="1" pageWidth="827" pageHeight="1169" math="0" shadow="0">
            <root>
                <mxCell id="0"/>
                <mxCell id="1" parent="0"/>
                <mxCell id="5" value="Adress" style="swimlane;rounded=1;shadow=0;glass=0;sketch=0;fontFamily=Helvetica;fontSize=9;fontColor=#000000;strokeColor=#666666;strokeWidth=2;fillColor=#ffcc99;html=1;startSize=23;" vertex="1" parent="1">
                    <mxGeometry x="235" y="80" width="200" height="200" as="geometry">
                        <mxRectangle x="170" y="40" width="60" height="23" as="alternateBounds"/>
                    </mxGeometry>
                </mxCell>
                <mxCell id="10" value="" style="rounded=0;whiteSpace=wrap;html=1;shadow=0;glass=0;sketch=0;fontFamily=Helvetica;fontSize=9;fontColor=#000000;strokeColor=#666666;strokeWidth=2;fillColor=#ffcc99;align=left;" vertex="1" parent="5">
                    <mxGeometry x="30" y="20" width="170" height="180" as="geometry"/>
                </mxCell>
                <mxCell id="11" value="&amp;nbsp; &amp;nbsp;id" style="text;html=1;strokeColor=none;fillColor=none;align=left;verticalAlign=middle;whiteSpace=wrap;rounded=0;shadow=0;glass=0;sketch=0;fontFamily=Helvetica;fontSize=9;fontColor=#000000;" vertex="1" parent="5">
                    <mxGeometry x="35" y="20" width="155" height="50" as="geometry"/>
                </mxCell>
                <mxCell id="15" value="&amp;nbsp; &amp;nbsp;ulke id" style="text;html=1;strokeColor=none;fillColor=none;align=left;verticalAlign=middle;whiteSpace=wrap;rounded=0;shadow=0;glass=0;sketch=0;fontFamily=Helvetica;fontSize=9;fontColor=#000000;" vertex="1" parent="5">
                    <mxGeometry x="35" y="50" width="145" height="50" as="geometry"/>
                </mxCell>
                <mxCell id="16" value="&amp;nbsp; &amp;nbsp;sehir id" style="text;html=1;strokeColor=none;fillColor=none;align=left;verticalAlign=middle;whiteSpace=wrap;rounded=0;shadow=0;glass=0;sketch=0;fontFamily=Helvetica;fontSize=9;fontColor=#000000;" vertex="1" parent="5">
                    <mxGeometry x="35" y="85" width="145" height="50" as="geometry"/>
                </mxCell>
                <mxCell id="18" value="&amp;nbsp; &amp;nbsp;semt id" style="text;html=1;strokeColor=none;fillColor=none;align=left;verticalAlign=middle;whiteSpace=wrap;rounded=0;shadow=0;glass=0;sketch=0;fontFamily=Helvetica;fontSize=9;fontColor=#000000;" vertex="1" parent="5">
                    <mxGeometry x="35" y="120" width="145" height="50" as="geometry"/>
                </mxCell>
                <mxCell id="8" value="" style="rounded=0;whiteSpace=wrap;html=1;shadow=0;glass=0;sketch=0;fontFamily=Helvetica;fontSize=9;fontColor=#000000;strokeColor=#666666;strokeWidth=2;fillColor=#ffcc99;" vertex="1" parent="1">
                    <mxGeometry x="235" y="100" width="30" height="180" as="geometry"/>
                </mxCell>
                <mxCell id="9" value="pk" style="text;html=1;strokeColor=none;fillColor=none;align=center;verticalAlign=middle;whiteSpace=wrap;rounded=0;shadow=0;glass=0;sketch=0;fontFamily=Helvetica;fontSize=9;fontColor=#000000;" vertex="1" parent="1">
                    <mxGeometry x="220" y="100" width="60" height="50" as="geometry"/>
                </mxCell>
                <mxCell id="12" value="fk" style="text;html=1;strokeColor=none;fillColor=none;align=center;verticalAlign=middle;whiteSpace=wrap;rounded=0;shadow=0;glass=0;sketch=0;fontFamily=Helvetica;fontSize=9;fontColor=#000000;" vertex="1" parent="1">
                    <mxGeometry x="220" y="130" width="60" height="50" as="geometry"/>
                </mxCell>
                <mxCell id="13" value="fk" style="text;html=1;strokeColor=none;fillColor=none;align=center;verticalAlign=middle;whiteSpace=wrap;rounded=0;shadow=0;glass=0;sketch=0;fontFamily=Helvetica;fontSize=9;fontColor=#000000;" vertex="1" parent="1">
                    <mxGeometry x="220" y="165" width="60" height="50" as="geometry"/>
                </mxCell>
                <mxCell id="14" value="fk" style="text;html=1;strokeColor=none;fillColor=none;align=center;verticalAlign=middle;whiteSpace=wrap;rounded=0;shadow=0;glass=0;sketch=0;fontFamily=Helvetica;fontSize=9;fontColor=#000000;" vertex="1" parent="1">
                    <mxGeometry x="220" y="200" width="60" height="50" as="geometry"/>
                </mxCell>
                <mxCell id="19" value="ulkeler" style="swimlane;rounded=1;shadow=0;glass=0;sketch=0;fontFamily=Helvetica;fontSize=9;fontColor=#000000;strokeColor=#666666;strokeWidth=2;fillColor=#ffcc99;html=1;startSize=23;" vertex="1" parent="1">
                    <mxGeometry x="545" y="80" width="200" height="200" as="geometry">
                        <mxRectangle x="545" y="80" width="60" height="23" as="alternateBounds"/>
                    </mxGeometry>
                </mxCell>
                <mxCell id="20" value="" style="rounded=0;whiteSpace=wrap;html=1;shadow=0;glass=0;sketch=0;fontFamily=Helvetica;fontSize=9;fontColor=#000000;strokeColor=#666666;strokeWidth=2;fillColor=#ffcc99;align=left;" vertex="1" parent="19">
                    <mxGeometry x="30" y="20" width="170" height="180" as="geometry"/>
                </mxCell>
                <mxCell id="21" value="&amp;nbsp; &amp;nbsp;id" style="text;html=1;strokeColor=none;fillColor=none;align=left;verticalAlign=middle;whiteSpace=wrap;rounded=0;shadow=0;glass=0;sketch=0;fontFamily=Helvetica;fontSize=9;fontColor=#000000;" vertex="1" parent="19">
                    <mxGeometry x="35" y="20" width="155" height="50" as="geometry"/>
                </mxCell>
                <mxCell id="22" value="ulke ismi" style="text;html=1;strokeColor=none;fillColor=none;align=left;verticalAlign=middle;whiteSpace=wrap;rounded=0;shadow=0;glass=0;sketch=0;fontFamily=Helvetica;fontSize=9;fontColor=#000000;" vertex="1" parent="19">
                    <mxGeometry x="35" y="50" width="145" height="50" as="geometry"/>
                </mxCell>
                <mxCell id="25" value="" style="rounded=0;whiteSpace=wrap;html=1;shadow=0;glass=0;sketch=0;fontFamily=Helvetica;fontSize=9;fontColor=#000000;strokeColor=#666666;strokeWidth=2;fillColor=#ffcc99;" vertex="1" parent="1">
                    <mxGeometry x="545" y="100" width="30" height="180" as="geometry"/>
                </mxCell>
                <mxCell id="26" value="pk" style="text;html=1;strokeColor=none;fillColor=none;align=center;verticalAlign=middle;whiteSpace=wrap;rounded=0;shadow=0;glass=0;sketch=0;fontFamily=Helvetica;fontSize=9;fontColor=#000000;" vertex="1" parent="1">
                    <mxGeometry x="530" y="100" width="60" height="50" as="geometry"/>
                </mxCell>
                <mxCell id="30" value="sehirler" style="swimlane;rounded=1;shadow=0;glass=0;sketch=0;fontFamily=Helvetica;fontSize=9;fontColor=#000000;strokeColor=#666666;strokeWidth=2;fillColor=#ffcc99;html=1;startSize=23;" vertex="1" parent="1">
                    <mxGeometry x="545" y="310" width="200" height="200" as="geometry">
                        <mxRectangle x="545" y="80" width="60" height="23" as="alternateBounds"/>
                    </mxGeometry>
                </mxCell>
                <mxCell id="31" value="" style="rounded=0;whiteSpace=wrap;html=1;shadow=0;glass=0;sketch=0;fontFamily=Helvetica;fontSize=9;fontColor=#000000;strokeColor=#666666;strokeWidth=2;fillColor=#ffcc99;align=left;" vertex="1" parent="30">
                    <mxGeometry x="30" y="20" width="170" height="180" as="geometry"/>
                </mxCell>
                <mxCell id="32" value="&amp;nbsp; &amp;nbsp;id" style="text;html=1;strokeColor=none;fillColor=none;align=left;verticalAlign=middle;whiteSpace=wrap;rounded=0;shadow=0;glass=0;sketch=0;fontFamily=Helvetica;fontSize=9;fontColor=#000000;" vertex="1" parent="30">
                    <mxGeometry x="35" y="20" width="155" height="50" as="geometry"/>
                </mxCell>
                <mxCell id="33" value="sehir ismi" style="text;html=1;strokeColor=none;fillColor=none;align=left;verticalAlign=middle;whiteSpace=wrap;rounded=0;shadow=0;glass=0;sketch=0;fontFamily=Helvetica;fontSize=9;fontColor=#000000;" vertex="1" parent="30">
                    <mxGeometry x="35" y="50" width="145" height="50" as="geometry"/>
                </mxCell>
                <mxCell id="50" value="ulke id" style="text;html=1;strokeColor=none;fillColor=none;align=left;verticalAlign=middle;whiteSpace=wrap;rounded=0;shadow=0;glass=0;sketch=0;fontFamily=Helvetica;fontSize=9;fontColor=#000000;" vertex="1" parent="30">
                    <mxGeometry x="35" y="85" width="145" height="50" as="geometry"/>
                </mxCell>
                <mxCell id="34" value="" style="rounded=0;whiteSpace=wrap;html=1;shadow=0;glass=0;sketch=0;fontFamily=Helvetica;fontSize=9;fontColor=#000000;strokeColor=#666666;strokeWidth=2;fillColor=#ffcc99;" vertex="1" parent="1">
                    <mxGeometry x="545" y="330" width="30" height="180" as="geometry"/>
                </mxCell>
                <mxCell id="35" value="pk" style="text;html=1;strokeColor=none;fillColor=none;align=center;verticalAlign=middle;whiteSpace=wrap;rounded=0;shadow=0;glass=0;sketch=0;fontFamily=Helvetica;fontSize=9;fontColor=#000000;" vertex="1" parent="1">
                    <mxGeometry x="530" y="330" width="60" height="50" as="geometry"/>
                </mxCell>
                <mxCell id="43" value="semt" style="swimlane;rounded=1;shadow=0;glass=0;sketch=0;fontFamily=Helvetica;fontSize=9;fontColor=#000000;strokeColor=#666666;strokeWidth=2;fillColor=#ffcc99;html=1;startSize=23;" vertex="1" parent="1">
                    <mxGeometry x="545" y="530" width="200" height="200" as="geometry">
                        <mxRectangle x="545" y="80" width="60" height="23" as="alternateBounds"/>
                    </mxGeometry>
                </mxCell>
                <mxCell id="44" value="" style="rounded=0;whiteSpace=wrap;html=1;shadow=0;glass=0;sketch=0;fontFamily=Helvetica;fontSize=9;fontColor=#000000;strokeColor=#666666;strokeWidth=2;fillColor=#ffcc99;align=left;" vertex="1" parent="43">
                    <mxGeometry x="30" y="20" width="170" height="180" as="geometry"/>
                </mxCell>
                <mxCell id="45" value="&amp;nbsp; &amp;nbsp;id" style="text;html=1;strokeColor=none;fillColor=none;align=left;verticalAlign=middle;whiteSpace=wrap;rounded=0;shadow=0;glass=0;sketch=0;fontFamily=Helvetica;fontSize=9;fontColor=#000000;" vertex="1" parent="43">
                    <mxGeometry x="35" y="20" width="155" height="50" as="geometry"/>
                </mxCell>
                <mxCell id="46" value="semt ismi" style="text;html=1;strokeColor=none;fillColor=none;align=left;verticalAlign=middle;whiteSpace=wrap;rounded=0;shadow=0;glass=0;sketch=0;fontFamily=Helvetica;fontSize=9;fontColor=#000000;" vertex="1" parent="43">
                    <mxGeometry x="35" y="50" width="145" height="50" as="geometry"/>
                </mxCell>
                <mxCell id="52" value="sehir id" style="text;html=1;strokeColor=none;fillColor=none;align=left;verticalAlign=middle;whiteSpace=wrap;rounded=0;shadow=0;glass=0;sketch=0;fontFamily=Helvetica;fontSize=9;fontColor=#000000;" vertex="1" parent="43">
                    <mxGeometry x="35" y="85" width="145" height="50" as="geometry"/>
                </mxCell>
                <mxCell id="47" value="" style="rounded=0;whiteSpace=wrap;html=1;shadow=0;glass=0;sketch=0;fontFamily=Helvetica;fontSize=9;fontColor=#000000;strokeColor=#666666;strokeWidth=2;fillColor=#ffcc99;" vertex="1" parent="1">
                    <mxGeometry x="545" y="550" width="30" height="180" as="geometry"/>
                </mxCell>
                <mxCell id="48" value="pk" style="text;html=1;strokeColor=none;fillColor=none;align=center;verticalAlign=middle;whiteSpace=wrap;rounded=0;shadow=0;glass=0;sketch=0;fontFamily=Helvetica;fontSize=9;fontColor=#000000;" vertex="1" parent="1">
                    <mxGeometry x="530" y="550" width="60" height="50" as="geometry"/>
                </mxCell>
                <mxCell id="51" value="pk-fk" style="text;html=1;strokeColor=none;fillColor=none;align=center;verticalAlign=middle;whiteSpace=wrap;rounded=0;shadow=0;glass=0;sketch=0;fontFamily=Helvetica;fontSize=9;fontColor=#000000;" vertex="1" parent="1">
                    <mxGeometry x="530" y="395" width="60" height="50" as="geometry"/>
                </mxCell>
                <mxCell id="53" value="pk-fk" style="text;html=1;strokeColor=none;fillColor=none;align=center;verticalAlign=middle;whiteSpace=wrap;rounded=0;shadow=0;glass=0;sketch=0;fontFamily=Helvetica;fontSize=9;fontColor=#000000;" vertex="1" parent="1">
                    <mxGeometry x="530" y="615" width="60" height="50" as="geometry"/>
                </mxCell>
                <mxCell id="57" value="Adresler" style="shape=table;startSize=30;container=1;collapsible=1;childLayout=tableLayout;fixedRows=1;rowLines=0;fontStyle=1;align=center;resizeLast=1;rounded=0;shadow=0;glass=0;sketch=0;fontFamily=Helvetica;fontSize=9;fontColor=#000000;strokeColor=#000000;strokeWidth=2;fillColor=#ffcc99;html=1;gradientColor=none;" vertex="1" parent="1">
                    <mxGeometry x="-660" y="50" width="180" height="150" as="geometry"/>
                </mxCell>
                <mxCell id="58" value="" style="shape=partialRectangle;collapsible=0;dropTarget=0;pointerEvents=0;fillColor=none;top=0;left=0;bottom=1;right=0;points=[[0,0.5],[1,0.5]];portConstraint=eastwest;rounded=0;shadow=0;glass=0;sketch=0;fontFamily=Helvetica;fontSize=9;fontColor=#000000;strokeColor=#666666;strokeWidth=2;html=1;" vertex="1" parent="57">
                    <mxGeometry y="30" width="180" height="30" as="geometry"/>
                </mxCell>
                <mxCell id="59" value="&lt;font color=&quot;#000000&quot;&gt;PK&lt;/font&gt;" style="shape=partialRectangle;connectable=0;fillColor=#ffcc99;top=0;left=0;bottom=0;right=0;fontStyle=1;overflow=hidden;rounded=0;shadow=0;glass=0;sketch=0;fontFamily=Helvetica;fontSize=9;strokeColor=#36393d;strokeWidth=2;html=1;" vertex="1" parent="58">
                    <mxGeometry width="30" height="30" as="geometry">
                        <mxRectangle width="30" height="30" as="alternateBounds"/>
                    </mxGeometry>
                </mxCell>
                <mxCell id="60" value="id" style="shape=partialRectangle;connectable=0;fillColor=#ffcc99;top=0;left=0;bottom=0;right=0;align=left;spacingLeft=6;fontStyle=5;overflow=hidden;rounded=0;shadow=0;glass=0;sketch=0;fontFamily=Helvetica;fontSize=9;fontColor=#000000;strokeColor=#000000;strokeWidth=2;html=1;" vertex="1" parent="58">
                    <mxGeometry x="30" width="150" height="30" as="geometry">
                        <mxRectangle width="150" height="30" as="alternateBounds"/>
                    </mxGeometry>
                </mxCell>
                <mxCell id="61" value="" style="shape=partialRectangle;collapsible=0;dropTarget=0;pointerEvents=0;fillColor=none;top=0;left=0;bottom=0;right=0;points=[[0,0.5],[1,0.5]];portConstraint=eastwest;rounded=0;shadow=0;glass=0;sketch=0;fontFamily=Helvetica;fontSize=9;fontColor=#000000;strokeColor=#666666;strokeWidth=2;html=1;" vertex="1" parent="57">
                    <mxGeometry y="60" width="180" height="30" as="geometry"/>
                </mxCell>
                <mxCell id="62" value="&lt;font style=&quot;font-size: 10px&quot; color=&quot;#000000&quot;&gt;&lt;b&gt;FK&lt;/b&gt;&lt;/font&gt;" style="shape=partialRectangle;connectable=0;fillColor=#ffcc99;top=0;left=0;bottom=0;right=0;editable=1;overflow=hidden;rounded=0;shadow=0;glass=0;sketch=0;fontFamily=Helvetica;fontSize=9;strokeColor=#36393d;strokeWidth=2;html=1;" vertex="1" parent="61">
                    <mxGeometry width="30" height="30" as="geometry">
                        <mxRectangle width="30" height="30" as="alternateBounds"/>
                    </mxGeometry>
                </mxCell>
                <mxCell id="63" value="&lt;font color=&quot;#000000&quot;&gt;&lt;span style=&quot;font-size: 10px&quot;&gt;ülke&lt;/span&gt;&lt;/font&gt;" style="shape=partialRectangle;connectable=0;fillColor=#ffcc99;top=0;left=0;bottom=0;right=0;align=left;spacingLeft=6;overflow=hidden;rounded=0;shadow=0;glass=0;sketch=0;fontFamily=Helvetica;fontSize=9;strokeColor=#36393d;strokeWidth=2;html=1;" vertex="1" parent="61">
                    <mxGeometry x="30" width="150" height="30" as="geometry">
                        <mxRectangle width="150" height="30" as="alternateBounds"/>
                    </mxGeometry>
                </mxCell>
                <mxCell id="64" value="" style="shape=partialRectangle;collapsible=0;dropTarget=0;pointerEvents=0;fillColor=none;top=0;left=0;bottom=0;right=0;points=[[0,0.5],[1,0.5]];portConstraint=eastwest;rounded=0;shadow=0;glass=0;sketch=0;fontFamily=Helvetica;fontSize=9;fontColor=#000000;strokeColor=#666666;strokeWidth=2;html=1;" vertex="1" parent="57">
                    <mxGeometry y="90" width="180" height="30" as="geometry"/>
                </mxCell>
                <mxCell id="65" value="&lt;span style=&quot;font-size: 10px&quot;&gt;&lt;b&gt;&lt;font color=&quot;#000000&quot;&gt;FK&lt;/font&gt;&lt;/b&gt;&lt;/span&gt;" style="shape=partialRectangle;connectable=0;fillColor=#ffcc99;top=0;left=0;bottom=0;right=0;editable=1;overflow=hidden;rounded=0;shadow=0;glass=0;sketch=0;fontFamily=Helvetica;fontSize=9;strokeColor=#36393d;strokeWidth=2;html=1;fontStyle=0" vertex="1" parent="64">
                    <mxGeometry width="30" height="30" as="geometry">
                        <mxRectangle width="30" height="30" as="alternateBounds"/>
                    </mxGeometry>
                </mxCell>
                <mxCell id="66" value="&lt;font color=&quot;#000000&quot;&gt;&lt;span style=&quot;font-size: 10px&quot;&gt;sehir&lt;/span&gt;&lt;/font&gt;" style="shape=partialRectangle;connectable=0;fillColor=#ffcc99;top=0;left=0;bottom=0;right=0;align=left;spacingLeft=6;overflow=hidden;rounded=0;shadow=0;glass=0;sketch=0;fontFamily=Helvetica;fontSize=9;strokeColor=#36393d;strokeWidth=2;html=1;" vertex="1" parent="64">
                    <mxGeometry x="30" width="150" height="30" as="geometry">
                        <mxRectangle width="150" height="30" as="alternateBounds"/>
                    </mxGeometry>
                </mxCell>
                <mxCell id="67" value="" style="shape=partialRectangle;collapsible=0;dropTarget=0;pointerEvents=0;fillColor=none;top=0;left=0;bottom=0;right=0;points=[[0,0.5],[1,0.5]];portConstraint=eastwest;rounded=0;shadow=0;glass=0;sketch=0;fontFamily=Helvetica;fontSize=9;fontColor=#000000;strokeColor=#000000;strokeWidth=2;html=1;" vertex="1" parent="57">
                    <mxGeometry y="120" width="180" height="30" as="geometry"/>
                </mxCell>
                <mxCell id="68" value="&lt;b&gt;&lt;font color=&quot;#000000&quot;&gt;FK&lt;/font&gt;&lt;/b&gt;" style="shape=partialRectangle;connectable=0;fillColor=#ffcc99;top=0;left=0;bottom=0;right=0;editable=1;overflow=hidden;rounded=0;shadow=0;glass=0;sketch=0;fontFamily=Helvetica;fontSize=9;strokeColor=#36393d;strokeWidth=2;html=1;" vertex="1" parent="67">
                    <mxGeometry width="30" height="30" as="geometry">
                        <mxRectangle width="30" height="30" as="alternateBounds"/>
                    </mxGeometry>
                </mxCell>
                <mxCell id="69" value="&lt;font style=&quot;font-size: 10px&quot; color=&quot;#000000&quot;&gt;semt&lt;/font&gt;" style="shape=partialRectangle;connectable=0;fillColor=#ffcc99;top=0;left=0;bottom=0;right=0;align=left;spacingLeft=6;overflow=hidden;rounded=0;shadow=0;glass=0;sketch=0;fontFamily=Helvetica;fontSize=9;strokeColor=#36393d;strokeWidth=2;html=1;" vertex="1" parent="67">
                    <mxGeometry x="30" width="150" height="30" as="geometry">
                        <mxRectangle width="150" height="30" as="alternateBounds"/>
                    </mxGeometry>
                </mxCell>
                <mxCell id="70" value="ülkeler" style="shape=table;startSize=30;container=1;collapsible=1;childLayout=tableLayout;fixedRows=1;rowLines=0;fontStyle=1;align=center;resizeLast=1;rounded=0;shadow=0;glass=0;sketch=0;fontFamily=Helvetica;fontSize=9;fontColor=#000000;strokeColor=#000000;strokeWidth=2;fillColor=#ffcc99;html=1;gradientColor=none;" vertex="1" parent="1">
                    <mxGeometry x="-350" y="50" width="180" height="90" as="geometry"/>
                </mxCell>
                <mxCell id="71" value="" style="shape=partialRectangle;collapsible=0;dropTarget=0;pointerEvents=0;fillColor=none;top=0;left=0;bottom=1;right=0;points=[[0,0.5],[1,0.5]];portConstraint=eastwest;rounded=0;shadow=0;glass=0;sketch=0;fontFamily=Helvetica;fontSize=9;fontColor=#000000;strokeColor=#666666;strokeWidth=2;html=1;" vertex="1" parent="70">
                    <mxGeometry y="30" width="180" height="30" as="geometry"/>
                </mxCell>
                <mxCell id="72" value="&lt;font color=&quot;#000000&quot;&gt;PK&lt;/font&gt;" style="shape=partialRectangle;connectable=0;fillColor=#ffcc99;top=0;left=0;bottom=0;right=0;fontStyle=1;overflow=hidden;rounded=0;shadow=0;glass=0;sketch=0;fontFamily=Helvetica;fontSize=9;strokeColor=#36393d;strokeWidth=2;html=1;" vertex="1" parent="71">
                    <mxGeometry width="30" height="30" as="geometry">
                        <mxRectangle width="30" height="30" as="alternateBounds"/>
                    </mxGeometry>
                </mxCell>
                <mxCell id="73" value="id" style="shape=partialRectangle;connectable=0;fillColor=#ffcc99;top=0;left=0;bottom=0;right=0;align=left;spacingLeft=6;fontStyle=5;overflow=hidden;rounded=0;shadow=0;glass=0;sketch=0;fontFamily=Helvetica;fontSize=9;fontColor=#000000;strokeColor=#000000;strokeWidth=2;html=1;" vertex="1" parent="71">
                    <mxGeometry x="30" width="150" height="30" as="geometry">
                        <mxRectangle width="150" height="30" as="alternateBounds"/>
                    </mxGeometry>
                </mxCell>
                <mxCell id="74" value="" style="shape=partialRectangle;collapsible=0;dropTarget=0;pointerEvents=0;fillColor=none;top=0;left=0;bottom=0;right=0;points=[[0,0.5],[1,0.5]];portConstraint=eastwest;rounded=0;shadow=0;glass=0;sketch=0;fontFamily=Helvetica;fontSize=9;fontColor=#000000;strokeColor=#666666;strokeWidth=2;html=1;" vertex="1" parent="70">
                    <mxGeometry y="60" width="180" height="30" as="geometry"/>
                </mxCell>
                <mxCell id="75" value="&lt;font style=&quot;font-size: 10px&quot; color=&quot;#000000&quot;&gt;&lt;b&gt;FK&lt;/b&gt;&lt;/font&gt;" style="shape=partialRectangle;connectable=0;fillColor=#ffcc99;top=0;left=0;bottom=0;right=0;editable=1;overflow=hidden;rounded=0;shadow=0;glass=0;sketch=0;fontFamily=Helvetica;fontSize=9;strokeColor=#36393d;strokeWidth=2;html=1;" vertex="1" parent="74">
                    <mxGeometry width="30" height="30" as="geometry">
                        <mxRectangle width="30" height="30" as="alternateBounds"/>
                    </mxGeometry>
                </mxCell>
                <mxCell id="76" value="&lt;font color=&quot;#000000&quot;&gt;&lt;span style=&quot;font-size: 10px&quot;&gt;ülke&lt;/span&gt;&lt;/font&gt;" style="shape=partialRectangle;connectable=0;fillColor=#ffcc99;top=0;left=0;bottom=0;right=0;align=left;spacingLeft=6;overflow=hidden;rounded=0;shadow=0;glass=0;sketch=0;fontFamily=Helvetica;fontSize=9;strokeColor=#36393d;strokeWidth=2;html=1;" vertex="1" parent="74">
                    <mxGeometry x="30" width="150" height="30" as="geometry">
                        <mxRectangle width="150" height="30" as="alternateBounds"/>
                    </mxGeometry>
                </mxCell>
                <mxCell id="83" value="sehirler" style="shape=table;startSize=30;container=1;collapsible=1;childLayout=tableLayout;fixedRows=1;rowLines=0;fontStyle=1;align=center;resizeLast=1;rounded=0;shadow=0;glass=0;sketch=0;fontFamily=Helvetica;fontSize=9;fontColor=#000000;strokeColor=#000000;strokeWidth=2;fillColor=#ffcc99;html=1;gradientColor=none;" vertex="1" parent="1">
                    <mxGeometry x="-350" y="160" width="180" height="120" as="geometry"/>
                </mxCell>
                <mxCell id="84" value="" style="shape=partialRectangle;collapsible=0;dropTarget=0;pointerEvents=0;fillColor=none;top=0;left=0;bottom=1;right=0;points=[[0,0.5],[1,0.5]];portConstraint=eastwest;rounded=0;shadow=0;glass=0;sketch=0;fontFamily=Helvetica;fontSize=9;fontColor=#000000;strokeColor=#666666;strokeWidth=2;html=1;" vertex="1" parent="83">
                    <mxGeometry y="30" width="180" height="30" as="geometry"/>
                </mxCell>
                <mxCell id="85" value="&lt;font color=&quot;#000000&quot;&gt;PK&lt;/font&gt;" style="shape=partialRectangle;connectable=0;fillColor=#ffcc99;top=0;left=0;bottom=0;right=0;fontStyle=1;overflow=hidden;rounded=0;shadow=0;glass=0;sketch=0;fontFamily=Helvetica;fontSize=9;strokeColor=#36393d;strokeWidth=2;html=1;" vertex="1" parent="84">
                    <mxGeometry width="30" height="30" as="geometry">
                        <mxRectangle width="30" height="30" as="alternateBounds"/>
                    </mxGeometry>
                </mxCell>
                <mxCell id="86" value="id" style="shape=partialRectangle;connectable=0;fillColor=#ffcc99;top=0;left=0;bottom=0;right=0;align=left;spacingLeft=6;fontStyle=5;overflow=hidden;rounded=0;shadow=0;glass=0;sketch=0;fontFamily=Helvetica;fontSize=9;fontColor=#000000;strokeColor=#000000;strokeWidth=2;html=1;" vertex="1" parent="84">
                    <mxGeometry x="30" width="150" height="30" as="geometry">
                        <mxRectangle width="150" height="30" as="alternateBounds"/>
                    </mxGeometry>
                </mxCell>
                <mxCell id="87" value="" style="shape=partialRectangle;collapsible=0;dropTarget=0;pointerEvents=0;fillColor=none;top=0;left=0;bottom=0;right=0;points=[[0,0.5],[1,0.5]];portConstraint=eastwest;rounded=0;shadow=0;glass=0;sketch=0;fontFamily=Helvetica;fontSize=9;fontColor=#000000;strokeColor=#666666;strokeWidth=2;html=1;" vertex="1" parent="83">
                    <mxGeometry y="60" width="180" height="30" as="geometry"/>
                </mxCell>
                <mxCell id="88" value="&lt;font color=&quot;#000000&quot; size=&quot;1&quot;&gt;&lt;b style=&quot;font-size: 9px&quot;&gt;PK-FK&lt;/b&gt;&lt;/font&gt;" style="shape=partialRectangle;connectable=0;fillColor=#ffcc99;top=0;left=0;bottom=0;right=0;editable=1;overflow=hidden;rounded=0;shadow=0;glass=0;sketch=0;fontFamily=Helvetica;fontSize=9;strokeColor=#36393d;strokeWidth=2;html=1;" vertex="1" parent="87">
                    <mxGeometry width="30" height="30" as="geometry">
                        <mxRectangle width="30" height="30" as="alternateBounds"/>
                    </mxGeometry>
                </mxCell>
                <mxCell id="89" value="&lt;font color=&quot;#000000&quot;&gt;&lt;span style=&quot;font-size: 10px&quot;&gt;ülke id&lt;/span&gt;&lt;/font&gt;" style="shape=partialRectangle;connectable=0;fillColor=#ffcc99;top=0;left=0;bottom=0;right=0;align=left;spacingLeft=6;overflow=hidden;rounded=0;shadow=0;glass=0;sketch=0;fontFamily=Helvetica;fontSize=9;strokeColor=#36393d;strokeWidth=2;html=1;" vertex="1" parent="87">
                    <mxGeometry x="30" width="150" height="30" as="geometry">
                        <mxRectangle width="150" height="30" as="alternateBounds"/>
                    </mxGeometry>
                </mxCell>
                <mxCell id="90" value="" style="shape=partialRectangle;collapsible=0;dropTarget=0;pointerEvents=0;fillColor=none;top=0;left=0;bottom=0;right=0;points=[[0,0.5],[1,0.5]];portConstraint=eastwest;rounded=0;shadow=0;glass=0;sketch=0;fontFamily=Helvetica;fontSize=9;fontColor=#000000;strokeColor=#666666;strokeWidth=2;html=1;" vertex="1" parent="1">
                    <mxGeometry x="-350" y="250" width="180" height="30" as="geometry"/>
                </mxCell>
                <mxCell id="91" value="&lt;font color=&quot;#000000&quot; size=&quot;1&quot;&gt;&lt;b style=&quot;font-size: 9px&quot;&gt;PK&lt;/b&gt;&lt;/font&gt;" style="shape=partialRectangle;connectable=0;fillColor=#ffcc99;top=0;left=0;bottom=0;right=0;editable=1;overflow=hidden;rounded=0;shadow=0;glass=0;sketch=0;fontFamily=Helvetica;fontSize=9;strokeColor=#36393d;strokeWidth=2;html=1;" vertex="1" parent="90">
                    <mxGeometry width="30" height="30" as="geometry">
                        <mxRectangle width="30" height="30" as="alternateBounds"/>
                    </mxGeometry>
                </mxCell>
                <mxCell id="92" value="&lt;font color=&quot;#000000&quot;&gt;&lt;span style=&quot;font-size: 10px&quot;&gt;sehir ismi&lt;/span&gt;&lt;/font&gt;" style="shape=partialRectangle;connectable=0;fillColor=#ffcc99;top=0;left=0;bottom=0;right=0;align=left;spacingLeft=6;overflow=hidden;rounded=0;shadow=0;glass=0;sketch=0;fontFamily=Helvetica;fontSize=9;strokeColor=#36393d;strokeWidth=2;html=1;" vertex="1" parent="90">
                    <mxGeometry x="30" width="150" height="30" as="geometry">
                        <mxRectangle width="150" height="30" as="alternateBounds"/>
                    </mxGeometry>
                </mxCell>
                <mxCell id="93" value="semtler" style="shape=table;startSize=30;container=1;collapsible=1;childLayout=tableLayout;fixedRows=1;rowLines=0;fontStyle=1;align=center;resizeLast=1;rounded=0;shadow=0;glass=0;sketch=0;fontFamily=Helvetica;fontSize=9;fontColor=#000000;strokeColor=#000000;strokeWidth=2;fillColor=#ffcc99;html=1;gradientColor=none;" vertex="1" parent="1">
                    <mxGeometry x="-350" y="295" width="180" height="120" as="geometry"/>
                </mxCell>
                <mxCell id="94" value="" style="shape=partialRectangle;collapsible=0;dropTarget=0;pointerEvents=0;fillColor=none;top=0;left=0;bottom=1;right=0;points=[[0,0.5],[1,0.5]];portConstraint=eastwest;rounded=0;shadow=0;glass=0;sketch=0;fontFamily=Helvetica;fontSize=9;fontColor=#000000;strokeColor=#666666;strokeWidth=2;html=1;" vertex="1" parent="93">
                    <mxGeometry y="30" width="180" height="30" as="geometry"/>
                </mxCell>
                <mxCell id="95" value="&lt;font color=&quot;#000000&quot;&gt;PK&lt;/font&gt;" style="shape=partialRectangle;connectable=0;fillColor=#ffcc99;top=0;left=0;bottom=0;right=0;fontStyle=1;overflow=hidden;rounded=0;shadow=0;glass=0;sketch=0;fontFamily=Helvetica;fontSize=9;strokeColor=#36393d;strokeWidth=2;html=1;" vertex="1" parent="94">
                    <mxGeometry width="30" height="30" as="geometry">
                        <mxRectangle width="30" height="30" as="alternateBounds"/>
                    </mxGeometry>
                </mxCell>
                <mxCell id="96" value="id" style="shape=partialRectangle;connectable=0;fillColor=#ffcc99;top=0;left=0;bottom=0;right=0;align=left;spacingLeft=6;fontStyle=5;overflow=hidden;rounded=0;shadow=0;glass=0;sketch=0;fontFamily=Helvetica;fontSize=9;fontColor=#000000;strokeColor=#000000;strokeWidth=2;html=1;" vertex="1" parent="94">
                    <mxGeometry x="30" width="150" height="30" as="geometry">
                        <mxRectangle width="150" height="30" as="alternateBounds"/>
                    </mxGeometry>
                </mxCell>
                <mxCell id="97" value="" style="shape=partialRectangle;collapsible=0;dropTarget=0;pointerEvents=0;fillColor=none;top=0;left=0;bottom=0;right=0;points=[[0,0.5],[1,0.5]];portConstraint=eastwest;rounded=0;shadow=0;glass=0;sketch=0;fontFamily=Helvetica;fontSize=9;fontColor=#000000;strokeColor=#666666;strokeWidth=2;html=1;" vertex="1" parent="93">
                    <mxGeometry y="60" width="180" height="30" as="geometry"/>
                </mxCell>
                <mxCell id="98" value="&lt;font color=&quot;#000000&quot; size=&quot;1&quot;&gt;&lt;b style=&quot;font-size: 9px&quot;&gt;PK-FK&lt;/b&gt;&lt;/font&gt;" style="shape=partialRectangle;connectable=0;fillColor=#ffcc99;top=0;left=0;bottom=0;right=0;editable=1;overflow=hidden;rounded=0;shadow=0;glass=0;sketch=0;fontFamily=Helvetica;fontSize=9;strokeColor=#36393d;strokeWidth=2;html=1;" vertex="1" parent="97">
                    <mxGeometry width="30" height="30" as="geometry">
                        <mxRectangle width="30" height="30" as="alternateBounds"/>
                    </mxGeometry>
                </mxCell>
                <mxCell id="99" value="&lt;font color=&quot;#000000&quot;&gt;&lt;span style=&quot;font-size: 10px&quot;&gt;sehir id&lt;/span&gt;&lt;/font&gt;" style="shape=partialRectangle;connectable=0;fillColor=#ffcc99;top=0;left=0;bottom=0;right=0;align=left;spacingLeft=6;overflow=hidden;rounded=0;shadow=0;glass=0;sketch=0;fontFamily=Helvetica;fontSize=9;strokeColor=#36393d;strokeWidth=2;html=1;" vertex="1" parent="97">
                    <mxGeometry x="30" width="150" height="30" as="geometry">
                        <mxRectangle width="150" height="30" as="alternateBounds"/>
                    </mxGeometry>
                </mxCell>
                <mxCell id="100" value="" style="shape=partialRectangle;collapsible=0;dropTarget=0;pointerEvents=0;fillColor=none;top=0;left=0;bottom=0;right=0;points=[[0,0.5],[1,0.5]];portConstraint=eastwest;rounded=0;shadow=0;glass=0;sketch=0;fontFamily=Helvetica;fontSize=9;fontColor=#000000;strokeColor=#666666;strokeWidth=2;html=1;" vertex="1" parent="1">
                    <mxGeometry x="-350" y="385" width="180" height="30" as="geometry"/>
                </mxCell>
                <mxCell id="101" value="&lt;font color=&quot;#000000&quot; size=&quot;1&quot;&gt;&lt;b style=&quot;font-size: 9px&quot;&gt;PK&lt;/b&gt;&lt;/font&gt;" style="shape=partialRectangle;connectable=0;fillColor=#ffcc99;top=0;left=0;bottom=0;right=0;editable=1;overflow=hidden;rounded=0;shadow=0;glass=0;sketch=0;fontFamily=Helvetica;fontSize=9;strokeColor=#36393d;strokeWidth=2;html=1;" vertex="1" parent="100">
                    <mxGeometry width="30" height="30" as="geometry">
                        <mxRectangle width="30" height="30" as="alternateBounds"/>
                    </mxGeometry>
                </mxCell>
                <mxCell id="102" value="&lt;font color=&quot;#000000&quot;&gt;&lt;span style=&quot;font-size: 10px&quot;&gt;semt ismi&lt;/span&gt;&lt;/font&gt;" style="shape=partialRectangle;connectable=0;fillColor=#ffcc99;top=0;left=0;bottom=0;right=0;align=left;spacingLeft=6;overflow=hidden;rounded=0;shadow=0;glass=0;sketch=0;fontFamily=Helvetica;fontSize=9;strokeColor=#36393d;strokeWidth=2;html=1;" vertex="1" parent="100">
                    <mxGeometry x="30" width="150" height="30" as="geometry">
                        <mxRectangle width="150" height="30" as="alternateBounds"/>
                    </mxGeometry>
                </mxCell>
                <mxCell id="103" value="" style="endArrow=none;html=1;fontFamily=Helvetica;fontSize=9;fontColor=#000000;startSize=30;exitX=1;exitY=0;exitDx=0;exitDy=0;entryX=0;entryY=0;entryDx=0;entryDy=0;strokeWidth=2;strokeColor=#000000;" edge="1" parent="1" source="57" target="70">
                    <mxGeometry width="50" height="50" relative="1" as="geometry">
                        <mxPoint x="-230" y="260" as="sourcePoint"/>
                        <mxPoint x="-180" y="210" as="targetPoint"/>
                    </mxGeometry>
                </mxCell>
                <mxCell id="104" value="" style="endArrow=none;html=1;fontFamily=Helvetica;fontSize=9;fontColor=#000000;startSize=30;exitX=1;exitY=0;exitDx=0;exitDy=0;entryX=0;entryY=0;entryDx=0;entryDy=0;strokeWidth=2;strokeColor=#000000;" edge="1" parent="1" source="57" target="83">
                    <mxGeometry width="50" height="50" relative="1" as="geometry">
                        <mxPoint x="-470" y="60" as="sourcePoint"/>
                        <mxPoint x="-340" y="60" as="targetPoint"/>
                    </mxGeometry>
                </mxCell>
                <mxCell id="105" value="" style="endArrow=none;html=1;fontFamily=Helvetica;fontSize=9;fontColor=#000000;startSize=30;entryX=0;entryY=0;entryDx=0;entryDy=0;strokeWidth=2;strokeColor=#000000;" edge="1" parent="1" target="93">
                    <mxGeometry width="50" height="50" relative="1" as="geometry">
                        <mxPoint x="-480" y="295" as="sourcePoint"/>
                        <mxPoint x="-340" y="170.0000000000001" as="targetPoint"/>
                    </mxGeometry>
                </mxCell>
                <mxCell id="107" value="" style="endArrow=none;html=1;fontFamily=Helvetica;fontSize=9;fontColor=#000000;startSize=30;strokeWidth=2;strokeColor=#000000;exitX=1;exitY=1;exitDx=0;exitDy=0;" edge="1" parent="1" source="57">
                    <mxGeometry width="50" height="50" relative="1" as="geometry">
                        <mxPoint x="-469.9999999999999" y="305" as="sourcePoint"/>
                        <mxPoint x="-480" y="300" as="targetPoint"/>
                    </mxGeometry>
                </mxCell>
            </root>
        </mxGraphModel>
    </diagram>
</mxfile>